<svg xmlns="http://www.w3.org/2000/svg" viewBox="0 0 800 500" preserveAspectRatio="xMidYMid slice">
  <g stroke="#ffffff" stroke-width="0.4" stroke-linecap="round" fill="none" opacity="0.15">
    <line x1="80" y1="60" x2="220" y2="90"/>
    <line x1="80" y1="60" x2="50" y2="180"/>
    <line x1="80" y1="60" x2="180" y2="230"/>
    <line x1="220" y1="90" x2="380" y2="50"/>
    <line x1="220" y1="90" x2="180" y2="230"/>
    <line x1="220" y1="90" x2="320" y2="170"/>
    <line x1="380" y1="50" x2="540" y2="100"/>
    <line x1="380" y1="50" x2="320" y2="170"/>
    <line x1="380" y1="50" x2="470" y2="220"/>
    <line x1="540" y1="100" x2="700" y2="60"/>
    <line x1="540" y1="100" x2="470" y2="220"/>
    <line x1="540" y1="100" x2="620" y2="170"/>
    <line x1="700" y1="60" x2="620" y2="170"/>
    <line x1="700" y1="60" x2="760" y2="230"/>
    <line x1="50" y1="180" x2="180" y2="230"/>
    <line x1="50" y1="180" x2="100" y2="320"/>
    <line x1="180" y1="230" x2="320" y2="170"/>
    <line x1="180" y1="230" x2="100" y2="320"/>
    <line x1="180" y1="230" x2="260" y2="290"/>
    <line x1="320" y1="170" x2="470" y2="220"/>
    <line x1="320" y1="170" x2="260" y2="290"/>
    <line x1="320" y1="170" x2="420" y2="350"/>
    <line x1="470" y1="220" x2="620" y2="170"/>
    <line x1="470" y1="220" x2="420" y2="350"/>
    <line x1="470" y1="220" x2="560" y2="300"/>
    <line x1="620" y1="170" x2="760" y2="230"/>
    <line x1="620" y1="170" x2="560" y2="300"/>
    <line x1="620" y1="170" x2="720" y2="340"/>
    <line x1="760" y1="230" x2="720" y2="340"/>
    <line x1="100" y1="320" x2="260" y2="290"/>
    <line x1="100" y1="320" x2="60" y2="460"/>
    <line x1="100" y1="320" x2="200" y2="430"/>
    <line x1="260" y1="290" x2="420" y2="350"/>
    <line x1="260" y1="290" x2="200" y2="430"/>
    <line x1="420" y1="350" x2="560" y2="300"/>
    <line x1="420" y1="350" x2="340" y2="470"/>
    <line x1="420" y1="350" x2="500" y2="450"/>
    <line x1="560" y1="300" x2="720" y2="340"/>
    <line x1="560" y1="300" x2="500" y2="450"/>
    <line x1="720" y1="340" x2="660" y2="470"/>
    <line x1="60" y1="460" x2="200" y2="430"/>
    <line x1="200" y1="430" x2="340" y2="470"/>
    <line x1="340" y1="470" x2="500" y2="450"/>
    <line x1="500" y1="450" x2="660" y2="470"/>
  </g>
  <g fill="#ffffff" opacity="0.22">
    <circle cx="80" cy="60" r="2.2"/>
    <circle cx="220" cy="90" r="2.2"/>
    <circle cx="380" cy="50" r="2.6"/>
    <circle cx="540" cy="100" r="2.2"/>
    <circle cx="700" cy="60" r="2.2"/>
    <circle cx="50" cy="180" r="2.2"/>
    <circle cx="180" cy="230" r="2.6"/>
    <circle cx="320" cy="170" r="2.2"/>
    <circle cx="470" cy="220" r="2.6"/>
    <circle cx="620" cy="170" r="2.2"/>
    <circle cx="760" cy="230" r="2.2"/>
    <circle cx="100" cy="320" r="2.2"/>
    <circle cx="260" cy="290" r="2.6"/>
    <circle cx="420" cy="350" r="2.2"/>
    <circle cx="560" cy="300" r="2.6"/>
    <circle cx="720" cy="340" r="2.2"/>
    <circle cx="60" cy="460" r="2.2"/>
    <circle cx="200" cy="430" r="2.2"/>
    <circle cx="340" cy="470" r="2.6"/>
    <circle cx="500" cy="450" r="2.2"/>
    <circle cx="660" cy="470" r="2.2"/>
  </g>
</svg>
